<svg width="8" height="8" viewBox="0 0 8 8" fill="none" xmlns="http://www.w3.org/2000/svg">
<path d="M1.50626 7.74198C1.34079 7.90745 1.11636 8.00041 0.882348 8.00041C0.648335 8.00041 0.423906 7.90745 0.258434 7.74198C0.0929613 7.57651 0 7.35208 0 7.11807C0 7.00219 0.0228226 6.88746 0.0671648 6.78041C0.111507 6.67335 0.1765 6.57608 0.258434 6.49415L6.49405 0.259417C6.6594 0.093945 6.88372 0.000937235 7.11765 0.000854547C7.35158 0.00077186 7.57596 0.0936212 7.74144 0.258977C7.90691 0.424332 7.99992 0.648648 8 0.882579C8.00008 1.11651 7.90723 1.34089 7.74188 1.50636L1.50626 7.7411V7.74198Z" fill="white"/>
<path d="M0.258434 1.50626C0.1765 1.42433 0.111507 1.32706 0.0671648 1.22001C0.0228226 1.11296 8.63311e-10 0.99822 0 0.882348C-8.6331e-10 0.766476 0.0228226 0.651739 0.0671648 0.544688C0.111507 0.437636 0.1765 0.340367 0.258434 0.258434C0.340367 0.1765 0.437636 0.111507 0.544688 0.0671648C0.651739 0.0228226 0.766476 -8.6331e-10 0.882348 0C0.99822 8.6331e-10 1.11296 0.0228226 1.22001 0.0671648C1.32706 0.111507 1.42433 0.1765 1.50626 0.258434L7.74099 6.49405C7.90647 6.6594 7.99948 6.88372 7.99956 7.11765C7.99964 7.35158 7.90679 7.57596 7.74144 7.74144C7.57608 7.90691 7.35176 7.99992 7.11783 8C6.8839 8.00008 6.65952 7.90723 6.49405 7.74188L0.259315 1.50626H0.258434Z" fill="white"/>
</svg>
