<svg width="12" height="2" viewBox="0 0 12 2" fill="none" xmlns="http://www.w3.org/2000/svg">
<path d="M1.59085 1.88241C1.47497 1.88241 1.36024 1.85959 1.25319 1.81524C1.14613 1.7709 1.04887 1.70591 0.966932 1.62398C0.884998 1.54204 0.820005 1.44477 0.775663 1.33772C0.731321 1.23067 0.708498 1.11593 0.708498 1.00006C0.708498 0.884189 0.731321 0.769453 0.775663 0.662401C0.820005 0.55535 0.884998 0.45808 0.966932 0.376147C1.04887 0.294213 1.14613 0.22922 1.25319 0.184878C1.36024 0.140536 1.47497 0.117713 1.59085 0.117713L10.4087 0.118337C10.6426 0.118254 10.867 0.211104 11.0325 0.376459C11.198 0.541814 11.291 0.766131 11.2911 1.00006C11.2911 1.23399 11.1983 1.45837 11.0329 1.62385C10.8676 1.78932 10.6433 1.88233 10.4093 1.88241L1.59147 1.88179L1.59085 1.88241Z" fill="white"/>
</svg>
